<?xml version="1.0" encoding="UTF-8" standalone="no"?>
<!DOCTYPE svg PUBLIC "-//W3C//DTD SVG 1.1//EN"
 "http://www.w3.org/Graphics/SVG/1.1/DTD/svg11.dtd">
<!-- Generated by graphviz version 5.0.0 (20220707.1540)
 -->
<!-- Title: dependencies Pages: 1 -->
<svg width="607pt" height="174pt"
 viewBox="0.00 0.00 607.00 173.80" xmlns="http://www.w3.org/2000/svg" xmlns:xlink="http://www.w3.org/1999/xlink">
<g id="graph0" class="graph" transform="scale(1 1) rotate(0) translate(4 169.8)">
<title>dependencies</title>
<polygon fill="white" stroke="transparent" points="-4,4 -4,-169.8 603,-169.8 603,4 -4,4"/>
<text text-anchor="middle" x="299.5" y="-8.2" font-family="sans-serif" font-size="14.00">dependencies</text>
<g id="clust1" class="cluster">
<title>cluster_AppModule</title>
<polygon fill="none" stroke="black" stroke-dasharray="1,5" points="8,-32.8 8,-157.8 591,-157.8 591,-32.8 8,-32.8"/>
</g>
<g id="clust3" class="cluster">
<title>cluster_AppModule_imports</title>
<polygon fill="none" stroke="black" points="16,-40.8 16,-92.8 583,-92.8 583,-40.8 16,-40.8"/>
</g>
<!-- AuthModule -->
<g id="node1" class="node">
<title>AuthModule</title>
<polygon fill="#8dd3c7" stroke="black" points="574.55,-84.8 571.55,-88.8 550.55,-88.8 547.55,-84.8 487.45,-84.8 487.45,-48.8 574.55,-48.8 574.55,-84.8"/>
<text text-anchor="middle" x="531" y="-62.6" font-family="Times,serif" font-size="14.00">AuthModule</text>
</g>
<!-- AppModule -->
<g id="node6" class="node">
<title>AppModule</title>
<polygon fill="#8dd3c7" stroke="black" points="339.66,-149.8 336.66,-153.8 315.66,-153.8 312.66,-149.8 256.34,-149.8 256.34,-113.8 339.66,-113.8 339.66,-149.8"/>
<text text-anchor="middle" x="298" y="-127.6" font-family="Times,serif" font-size="14.00">AppModule</text>
</g>
<!-- AuthModule&#45;&gt;AppModule -->
<g id="edge1" class="edge">
<title>AuthModule&#45;&gt;AppModule</title>
<path fill="none" stroke="black" d="M531,-85.08C531,-106.12 531,-137.8 531,-137.8 531,-137.8 349.92,-137.8 349.92,-137.8"/>
<polygon fill="black" stroke="black" points="349.92,-134.3 339.92,-137.8 349.92,-141.3 349.92,-134.3"/>
</g>
<!-- FinanceModule -->
<g id="node2" class="node">
<title>FinanceModule</title>
<polygon fill="#8dd3c7" stroke="black" points="468.87,-84.8 465.87,-88.8 444.87,-88.8 441.87,-84.8 365.13,-84.8 365.13,-48.8 468.87,-48.8 468.87,-84.8"/>
<text text-anchor="middle" x="417" y="-62.6" font-family="Times,serif" font-size="14.00">FinanceModule</text>
</g>
<!-- FinanceModule&#45;&gt;AppModule -->
<g id="edge2" class="edge">
<title>FinanceModule&#45;&gt;AppModule</title>
<path fill="none" stroke="black" d="M417,-84.82C417,-102.17 417,-125.8 417,-125.8 417,-125.8 349.95,-125.8 349.95,-125.8"/>
<polygon fill="black" stroke="black" points="349.95,-122.3 339.95,-125.8 349.95,-129.3 349.95,-122.3"/>
</g>
<!-- OrdersModule -->
<g id="node3" class="node">
<title>OrdersModule</title>
<polygon fill="#8dd3c7" stroke="black" points="346.65,-84.8 343.65,-88.8 322.65,-88.8 319.65,-84.8 249.35,-84.8 249.35,-48.8 346.65,-48.8 346.65,-84.8"/>
<text text-anchor="middle" x="298" y="-62.6" font-family="Times,serif" font-size="14.00">OrdersModule</text>
</g>
<!-- OrdersModule&#45;&gt;AppModule -->
<g id="edge3" class="edge">
<title>OrdersModule&#45;&gt;AppModule</title>
<path fill="none" stroke="black" d="M298,-84.91C298,-84.91 298,-103.79 298,-103.79"/>
<polygon fill="black" stroke="black" points="294.5,-103.79 298,-113.79 301.5,-103.79 294.5,-103.79"/>
</g>
<!-- ProductModule -->
<g id="node4" class="node">
<title>ProductModule</title>
<polygon fill="#8dd3c7" stroke="black" points="231.6,-84.8 228.6,-88.8 207.6,-88.8 204.6,-84.8 128.4,-84.8 128.4,-48.8 231.6,-48.8 231.6,-84.8"/>
<text text-anchor="middle" x="180" y="-62.6" font-family="Times,serif" font-size="14.00">ProductModule</text>
</g>
<!-- ProductModule&#45;&gt;AppModule -->
<g id="edge4" class="edge">
<title>ProductModule&#45;&gt;AppModule</title>
<path fill="none" stroke="black" d="M180,-84.82C180,-102.17 180,-125.8 180,-125.8 180,-125.8 246.07,-125.8 246.07,-125.8"/>
<polygon fill="black" stroke="black" points="246.07,-129.3 256.07,-125.8 246.07,-122.3 246.07,-129.3"/>
</g>
<!-- UserModule -->
<g id="node5" class="node">
<title>UserModule</title>
<polygon fill="#8dd3c7" stroke="black" points="109.99,-84.8 106.99,-88.8 85.99,-88.8 82.99,-84.8 24.01,-84.8 24.01,-48.8 109.99,-48.8 109.99,-84.8"/>
<text text-anchor="middle" x="67" y="-62.6" font-family="Times,serif" font-size="14.00">UserModule</text>
</g>
<!-- UserModule&#45;&gt;AppModule -->
<g id="edge5" class="edge">
<title>UserModule&#45;&gt;AppModule</title>
<path fill="none" stroke="black" d="M67,-85.08C67,-106.12 67,-137.8 67,-137.8 67,-137.8 246.17,-137.8 246.17,-137.8"/>
<polygon fill="black" stroke="black" points="246.17,-141.3 256.17,-137.8 246.17,-134.3 246.17,-141.3"/>
</g>
</g>
</svg>
