<?xml version="1.0" encoding="UTF-8" standalone="no"?>
<!DOCTYPE svg PUBLIC "-//W3C//DTD SVG 1.1//EN"
 "http://www.w3.org/Graphics/SVG/1.1/DTD/svg11.dtd">
<!-- Generated by graphviz version 5.0.0 (20220707.1540)
 -->
<!-- Title: dependencies Pages: 1 -->
<svg width="642pt" height="250pt"
 viewBox="0.00 0.00 642.00 249.80" xmlns="http://www.w3.org/2000/svg" xmlns:xlink="http://www.w3.org/1999/xlink">
<g id="graph0" class="graph" transform="scale(1 1) rotate(0) translate(4 245.8)">
<title>dependencies</title>
<polygon fill="white" stroke="transparent" points="-4,4 -4,-245.8 638,-245.8 638,4 -4,4"/>
<text text-anchor="middle" x="317" y="-8.2" font-family="sans-serif" font-size="14.00">dependencies</text>
<g id="clust1" class="cluster">
<title>cluster_AppModule</title>
<polygon fill="none" stroke="black" stroke-dasharray="1,5" points="183,-108.8 183,-233.8 528,-233.8 528,-108.8 183,-108.8"/>
</g>
<g id="clust3" class="cluster">
<title>cluster_AppModule_imports</title>
<polygon fill="none" stroke="black" points="191,-116.8 191,-168.8 520,-168.8 520,-116.8 191,-116.8"/>
</g>
<g id="clust7" class="cluster">
<title>cluster_AuthModule</title>
<polygon fill="none" stroke="black" stroke-dasharray="1,5" points="8,-32.8 8,-100.8 290,-100.8 290,-32.8 8,-32.8"/>
</g>
<g id="clust12" class="cluster">
<title>cluster_AuthModule_providers</title>
<polygon fill="none" stroke="black" points="16,-40.8 16,-92.8 282,-92.8 282,-40.8 16,-40.8"/>
</g>
<g id="clust13" class="cluster">
<title>cluster_ProductModule</title>
<polygon fill="none" stroke="black" stroke-dasharray="1,5" points="298,-32.8 298,-100.8 470,-100.8 470,-32.8 298,-32.8"/>
</g>
<g id="clust18" class="cluster">
<title>cluster_ProductModule_providers</title>
<polygon fill="none" stroke="black" points="306,-40.8 306,-92.8 462,-92.8 462,-40.8 306,-40.8"/>
</g>
<g id="clust19" class="cluster">
<title>cluster_UserModule</title>
<polygon fill="none" stroke="black" stroke-dasharray="1,5" points="478,-32.8 478,-100.8 626,-100.8 626,-32.8 478,-32.8"/>
</g>
<g id="clust24" class="cluster">
<title>cluster_UserModule_providers</title>
<polygon fill="none" stroke="black" points="486,-40.8 486,-92.8 618,-92.8 618,-40.8 486,-40.8"/>
</g>
<!-- AuthModule -->
<g id="node1" class="node">
<title>AuthModule</title>
<polygon fill="#8dd3c7" stroke="black" points="286.55,-160.8 283.55,-164.8 262.55,-164.8 259.55,-160.8 199.45,-160.8 199.45,-124.8 286.55,-124.8 286.55,-160.8"/>
<text text-anchor="middle" x="243" y="-138.6" font-family="Times,serif" font-size="14.00">AuthModule</text>
</g>
<!-- AppModule -->
<g id="node4" class="node">
<title>AppModule</title>
<polygon fill="#8dd3c7" stroke="black" points="397.66,-225.8 394.66,-229.8 373.66,-229.8 370.66,-225.8 314.34,-225.8 314.34,-189.8 397.66,-189.8 397.66,-225.8"/>
<text text-anchor="middle" x="356" y="-203.6" font-family="Times,serif" font-size="14.00">AppModule</text>
</g>
<!-- AuthModule&#45;&gt;AppModule -->
<g id="edge1" class="edge">
<title>AuthModule&#45;&gt;AppModule</title>
<path fill="none" stroke="black" d="M243,-160.91C243,-180.14 243,-207.8 243,-207.8 243,-207.8 304.24,-207.8 304.24,-207.8"/>
<polygon fill="black" stroke="black" points="304.24,-211.3 314.24,-207.8 304.24,-204.3 304.24,-211.3"/>
</g>
<!-- ProductModule -->
<g id="node2" class="node">
<title>ProductModule</title>
<polygon fill="#8dd3c7" stroke="black" points="407.6,-160.8 404.6,-164.8 383.6,-164.8 380.6,-160.8 304.4,-160.8 304.4,-124.8 407.6,-124.8 407.6,-160.8"/>
<text text-anchor="middle" x="356" y="-138.6" font-family="Times,serif" font-size="14.00">ProductModule</text>
</g>
<!-- ProductModule&#45;&gt;AppModule -->
<g id="edge2" class="edge">
<title>ProductModule&#45;&gt;AppModule</title>
<path fill="none" stroke="black" d="M356,-160.91C356,-160.91 356,-179.79 356,-179.79"/>
<polygon fill="black" stroke="black" points="352.5,-179.79 356,-189.79 359.5,-179.79 352.5,-179.79"/>
</g>
<!-- UserModule -->
<g id="node3" class="node">
<title>UserModule</title>
<polygon fill="#8dd3c7" stroke="black" points="511.99,-160.8 508.99,-164.8 487.99,-164.8 484.99,-160.8 426.01,-160.8 426.01,-124.8 511.99,-124.8 511.99,-160.8"/>
<text text-anchor="middle" x="469" y="-138.6" font-family="Times,serif" font-size="14.00">UserModule</text>
</g>
<!-- UserModule&#45;&gt;AppModule -->
<g id="edge3" class="edge">
<title>UserModule&#45;&gt;AppModule</title>
<path fill="none" stroke="black" d="M469,-160.91C469,-180.14 469,-207.8 469,-207.8 469,-207.8 407.76,-207.8 407.76,-207.8"/>
<polygon fill="black" stroke="black" points="407.76,-204.3 397.76,-207.8 407.76,-211.3 407.76,-204.3"/>
</g>
<!-- AuthService -->
<g id="node5" class="node">
<title>AuthService</title>
<ellipse fill="#fdb462" stroke="black" cx="215" cy="-66.8" rx="59.11" ry="18"/>
<text text-anchor="middle" x="215" y="-62.6" font-family="Times,serif" font-size="14.00">AuthService</text>
</g>
<!-- AuthService&#45;&gt;AuthModule -->
<g id="edge4" class="edge">
<title>AuthService&#45;&gt;AuthModule</title>
<path fill="none" stroke="black" d="M236.77,-83.67C236.77,-83.67 236.77,-114.65 236.77,-114.65"/>
<polygon fill="black" stroke="black" points="233.27,-114.65 236.77,-124.65 240.27,-114.65 233.27,-114.65"/>
</g>
<!-- JwtStrategy -->
<g id="node6" class="node">
<title>JwtStrategy</title>
<ellipse fill="#fdb462" stroke="black" cx="81" cy="-66.8" rx="56.77" ry="18"/>
<text text-anchor="middle" x="81" y="-62.6" font-family="Times,serif" font-size="14.00">JwtStrategy</text>
</g>
<!-- JwtStrategy&#45;&gt;AuthModule -->
<g id="edge5" class="edge">
<title>JwtStrategy&#45;&gt;AuthModule</title>
<path fill="none" stroke="black" d="M81,-84.81C81,-107.29 81,-142.8 81,-142.8 81,-142.8 189.16,-142.8 189.16,-142.8"/>
<polygon fill="black" stroke="black" points="189.16,-146.3 199.16,-142.8 189.16,-139.3 189.16,-146.3"/>
</g>
<!-- ProductService -->
<g id="node7" class="node">
<title>ProductService</title>
<ellipse fill="#fdb462" stroke="black" cx="384" cy="-66.8" rx="70.07" ry="18"/>
<text text-anchor="middle" x="384" y="-62.6" font-family="Times,serif" font-size="14.00">ProductService</text>
</g>
<!-- ProductService&#45;&gt;ProductModule -->
<g id="edge6" class="edge">
<title>ProductService&#45;&gt;ProductModule</title>
<path fill="none" stroke="black" d="M360.76,-84.05C360.76,-84.05 360.76,-114.56 360.76,-114.56"/>
<polygon fill="black" stroke="black" points="357.26,-114.56 360.76,-124.56 364.26,-114.56 357.26,-114.56"/>
</g>
<!-- UserService -->
<g id="node8" class="node">
<title>UserService</title>
<ellipse fill="#fdb462" stroke="black" cx="552" cy="-66.8" rx="58.46" ry="18"/>
<text text-anchor="middle" x="552" y="-62.6" font-family="Times,serif" font-size="14.00">UserService</text>
</g>
<!-- UserService&#45;&gt;UserModule -->
<g id="edge7" class="edge">
<title>UserService&#45;&gt;UserModule</title>
<path fill="none" stroke="black" d="M502.88,-76.74C502.88,-76.74 502.88,-114.71 502.88,-114.71"/>
<polygon fill="black" stroke="black" points="499.38,-114.71 502.88,-124.71 506.38,-114.71 499.38,-114.71"/>
</g>
</g>
</svg>
