<?xml version="1.0" encoding="UTF-8" standalone="no"?>
<!DOCTYPE svg PUBLIC "-//W3C//DTD SVG 1.1//EN"
 "http://www.w3.org/Graphics/SVG/1.1/DTD/svg11.dtd">
<!-- Generated by graphviz version 5.0.0 (20220707.1540)
 -->
<!-- Title: dependencies Pages: 1 -->
<svg width="996pt" height="250pt"
 viewBox="0.00 0.00 996.00 249.80" xmlns="http://www.w3.org/2000/svg" xmlns:xlink="http://www.w3.org/1999/xlink">
<g id="graph0" class="graph" transform="scale(1 1) rotate(0) translate(4 245.8)">
<title>dependencies</title>
<polygon fill="white" stroke="transparent" points="-4,4 -4,-245.8 992,-245.8 992,4 -4,4"/>
<text text-anchor="middle" x="494" y="-8.2" font-family="sans-serif" font-size="14.00">dependencies</text>
<g id="clust1" class="cluster">
<title>cluster_AppModule</title>
<polygon fill="none" stroke="black" stroke-dasharray="1,5" points="240,-108.8 240,-233.8 823,-233.8 823,-108.8 240,-108.8"/>
</g>
<g id="clust3" class="cluster">
<title>cluster_AppModule_imports</title>
<polygon fill="none" stroke="black" points="248,-116.8 248,-168.8 815,-168.8 815,-116.8 248,-116.8"/>
</g>
<g id="clust7" class="cluster">
<title>cluster_AuthModule</title>
<polygon fill="none" stroke="black" stroke-dasharray="1,5" points="8,-32.8 8,-100.8 290,-100.8 290,-32.8 8,-32.8"/>
</g>
<g id="clust12" class="cluster">
<title>cluster_AuthModule_providers</title>
<polygon fill="none" stroke="black" points="16,-40.8 16,-92.8 282,-92.8 282,-40.8 16,-40.8"/>
</g>
<g id="clust13" class="cluster">
<title>cluster_FinanceModule</title>
<polygon fill="none" stroke="black" stroke-dasharray="1,5" points="298,-32.8 298,-100.8 472,-100.8 472,-32.8 298,-32.8"/>
</g>
<g id="clust18" class="cluster">
<title>cluster_FinanceModule_providers</title>
<polygon fill="none" stroke="black" points="306,-40.8 306,-92.8 464,-92.8 464,-40.8 306,-40.8"/>
</g>
<g id="clust19" class="cluster">
<title>cluster_OrdersModule</title>
<polygon fill="none" stroke="black" stroke-dasharray="1,5" points="480,-32.8 480,-100.8 644,-100.8 644,-32.8 480,-32.8"/>
</g>
<g id="clust24" class="cluster">
<title>cluster_OrdersModule_providers</title>
<polygon fill="none" stroke="black" points="488,-40.8 488,-92.8 636,-92.8 636,-40.8 488,-40.8"/>
</g>
<g id="clust25" class="cluster">
<title>cluster_ProductModule</title>
<polygon fill="none" stroke="black" stroke-dasharray="1,5" points="652,-32.8 652,-100.8 824,-100.8 824,-32.8 652,-32.8"/>
</g>
<g id="clust30" class="cluster">
<title>cluster_ProductModule_providers</title>
<polygon fill="none" stroke="black" points="660,-40.8 660,-92.8 816,-92.8 816,-40.8 660,-40.8"/>
</g>
<g id="clust31" class="cluster">
<title>cluster_UserModule</title>
<polygon fill="none" stroke="black" stroke-dasharray="1,5" points="832,-32.8 832,-100.8 980,-100.8 980,-32.8 832,-32.8"/>
</g>
<g id="clust36" class="cluster">
<title>cluster_UserModule_providers</title>
<polygon fill="none" stroke="black" points="840,-40.8 840,-92.8 972,-92.8 972,-40.8 840,-40.8"/>
</g>
<!-- AuthModule -->
<g id="node1" class="node">
<title>AuthModule</title>
<polygon fill="#8dd3c7" stroke="black" points="343.55,-160.8 340.55,-164.8 319.55,-164.8 316.55,-160.8 256.45,-160.8 256.45,-124.8 343.55,-124.8 343.55,-160.8"/>
<text text-anchor="middle" x="300" y="-138.6" font-family="Times,serif" font-size="14.00">AuthModule</text>
</g>
<!-- AppModule -->
<g id="node6" class="node">
<title>AppModule</title>
<polygon fill="#8dd3c7" stroke="black" points="574.66,-225.8 571.66,-229.8 550.66,-229.8 547.66,-225.8 491.34,-225.8 491.34,-189.8 574.66,-189.8 574.66,-225.8"/>
<text text-anchor="middle" x="533" y="-203.6" font-family="Times,serif" font-size="14.00">AppModule</text>
</g>
<!-- AuthModule&#45;&gt;AppModule -->
<g id="edge1" class="edge">
<title>AuthModule&#45;&gt;AppModule</title>
<path fill="none" stroke="black" d="M300,-161.08C300,-182.12 300,-213.8 300,-213.8 300,-213.8 481.08,-213.8 481.08,-213.8"/>
<polygon fill="black" stroke="black" points="481.08,-217.3 491.08,-213.8 481.08,-210.3 481.08,-217.3"/>
</g>
<!-- FinanceModule -->
<g id="node2" class="node">
<title>FinanceModule</title>
<polygon fill="#8dd3c7" stroke="black" points="465.87,-160.8 462.87,-164.8 441.87,-164.8 438.87,-160.8 362.13,-160.8 362.13,-124.8 465.87,-124.8 465.87,-160.8"/>
<text text-anchor="middle" x="414" y="-138.6" font-family="Times,serif" font-size="14.00">FinanceModule</text>
</g>
<!-- FinanceModule&#45;&gt;AppModule -->
<g id="edge2" class="edge">
<title>FinanceModule&#45;&gt;AppModule</title>
<path fill="none" stroke="black" d="M414,-160.82C414,-178.17 414,-201.8 414,-201.8 414,-201.8 481.05,-201.8 481.05,-201.8"/>
<polygon fill="black" stroke="black" points="481.05,-205.3 491.05,-201.8 481.05,-198.3 481.05,-205.3"/>
</g>
<!-- OrdersModule -->
<g id="node3" class="node">
<title>OrdersModule</title>
<polygon fill="#8dd3c7" stroke="black" points="581.65,-160.8 578.65,-164.8 557.65,-164.8 554.65,-160.8 484.35,-160.8 484.35,-124.8 581.65,-124.8 581.65,-160.8"/>
<text text-anchor="middle" x="533" y="-138.6" font-family="Times,serif" font-size="14.00">OrdersModule</text>
</g>
<!-- OrdersModule&#45;&gt;AppModule -->
<g id="edge3" class="edge">
<title>OrdersModule&#45;&gt;AppModule</title>
<path fill="none" stroke="black" d="M533,-160.91C533,-160.91 533,-179.79 533,-179.79"/>
<polygon fill="black" stroke="black" points="529.5,-179.79 533,-189.79 536.5,-179.79 529.5,-179.79"/>
</g>
<!-- ProductModule -->
<g id="node4" class="node">
<title>ProductModule</title>
<polygon fill="#8dd3c7" stroke="black" points="702.6,-160.8 699.6,-164.8 678.6,-164.8 675.6,-160.8 599.4,-160.8 599.4,-124.8 702.6,-124.8 702.6,-160.8"/>
<text text-anchor="middle" x="651" y="-138.6" font-family="Times,serif" font-size="14.00">ProductModule</text>
</g>
<!-- ProductModule&#45;&gt;AppModule -->
<g id="edge4" class="edge">
<title>ProductModule&#45;&gt;AppModule</title>
<path fill="none" stroke="black" d="M651,-160.82C651,-178.17 651,-201.8 651,-201.8 651,-201.8 584.93,-201.8 584.93,-201.8"/>
<polygon fill="black" stroke="black" points="584.93,-198.3 574.93,-201.8 584.93,-205.3 584.93,-198.3"/>
</g>
<!-- UserModule -->
<g id="node5" class="node">
<title>UserModule</title>
<polygon fill="#8dd3c7" stroke="black" points="806.99,-160.8 803.99,-164.8 782.99,-164.8 779.99,-160.8 721.01,-160.8 721.01,-124.8 806.99,-124.8 806.99,-160.8"/>
<text text-anchor="middle" x="764" y="-138.6" font-family="Times,serif" font-size="14.00">UserModule</text>
</g>
<!-- UserModule&#45;&gt;AppModule -->
<g id="edge5" class="edge">
<title>UserModule&#45;&gt;AppModule</title>
<path fill="none" stroke="black" d="M764,-161.08C764,-182.12 764,-213.8 764,-213.8 764,-213.8 584.83,-213.8 584.83,-213.8"/>
<polygon fill="black" stroke="black" points="584.83,-210.3 574.83,-213.8 584.83,-217.3 584.83,-210.3"/>
</g>
<!-- AuthService -->
<g id="node7" class="node">
<title>AuthService</title>
<ellipse fill="#fdb462" stroke="black" cx="215" cy="-66.8" rx="59.11" ry="18"/>
<text text-anchor="middle" x="215" y="-62.6" font-family="Times,serif" font-size="14.00">AuthService</text>
</g>
<!-- AuthService&#45;&gt;AuthModule -->
<g id="edge6" class="edge">
<title>AuthService&#45;&gt;AuthModule</title>
<path fill="none" stroke="black" d="M265.27,-76.43C265.27,-76.43 265.27,-114.55 265.27,-114.55"/>
<polygon fill="black" stroke="black" points="261.77,-114.55 265.27,-124.55 268.77,-114.55 261.77,-114.55"/>
</g>
<!-- JwtStrategy -->
<g id="node8" class="node">
<title>JwtStrategy</title>
<ellipse fill="#fdb462" stroke="black" cx="81" cy="-66.8" rx="56.77" ry="18"/>
<text text-anchor="middle" x="81" y="-62.6" font-family="Times,serif" font-size="14.00">JwtStrategy</text>
</g>
<!-- JwtStrategy&#45;&gt;AuthModule -->
<g id="edge7" class="edge">
<title>JwtStrategy&#45;&gt;AuthModule</title>
<path fill="none" stroke="black" d="M81,-84.81C81,-107.29 81,-142.8 81,-142.8 81,-142.8 246.21,-142.8 246.21,-142.8"/>
<polygon fill="black" stroke="black" points="246.21,-146.3 256.21,-142.8 246.21,-139.3 246.21,-146.3"/>
</g>
<!-- FinanceService -->
<g id="node9" class="node">
<title>FinanceService</title>
<ellipse fill="#fdb462" stroke="black" cx="385" cy="-66.8" rx="70.63" ry="18"/>
<text text-anchor="middle" x="385" y="-62.6" font-family="Times,serif" font-size="14.00">FinanceService</text>
</g>
<!-- FinanceService&#45;&gt;FinanceModule -->
<g id="edge8" class="edge">
<title>FinanceService&#45;&gt;FinanceModule</title>
<path fill="none" stroke="black" d="M408.81,-84.05C408.81,-84.05 408.81,-114.56 408.81,-114.56"/>
<polygon fill="black" stroke="black" points="405.31,-114.56 408.81,-124.56 412.31,-114.56 405.31,-114.56"/>
</g>
<!-- OrdersService -->
<g id="node10" class="node">
<title>OrdersService</title>
<ellipse fill="#fdb462" stroke="black" cx="562" cy="-66.8" rx="66.04" ry="18"/>
<text text-anchor="middle" x="562" y="-62.6" font-family="Times,serif" font-size="14.00">OrdersService</text>
</g>
<!-- OrdersService&#45;&gt;OrdersModule -->
<g id="edge9" class="edge">
<title>OrdersService&#45;&gt;OrdersModule</title>
<path fill="none" stroke="black" d="M538.78,-83.67C538.78,-83.67 538.78,-114.65 538.78,-114.65"/>
<polygon fill="black" stroke="black" points="535.28,-114.65 538.78,-124.65 542.28,-114.65 535.28,-114.65"/>
</g>
<!-- ProductService -->
<g id="node11" class="node">
<title>ProductService</title>
<ellipse fill="#fdb462" stroke="black" cx="738" cy="-66.8" rx="70.07" ry="18"/>
<text text-anchor="middle" x="738" y="-62.6" font-family="Times,serif" font-size="14.00">ProductService</text>
</g>
<!-- ProductService&#45;&gt;ProductModule -->
<g id="edge10" class="edge">
<title>ProductService&#45;&gt;ProductModule</title>
<path fill="none" stroke="black" d="M685.26,-78.68C685.26,-78.68 685.26,-114.79 685.26,-114.79"/>
<polygon fill="black" stroke="black" points="681.76,-114.79 685.26,-124.79 688.76,-114.79 681.76,-114.79"/>
</g>
<!-- UserService -->
<g id="node12" class="node">
<title>UserService</title>
<ellipse fill="#fdb462" stroke="black" cx="906" cy="-66.8" rx="58.46" ry="18"/>
<text text-anchor="middle" x="906" y="-62.6" font-family="Times,serif" font-size="14.00">UserService</text>
</g>
<!-- UserService&#45;&gt;UserModule -->
<g id="edge11" class="edge">
<title>UserService&#45;&gt;UserModule</title>
<path fill="none" stroke="black" d="M906,-84.81C906,-107.29 906,-142.8 906,-142.8 906,-142.8 816.99,-142.8 816.99,-142.8"/>
<polygon fill="black" stroke="black" points="816.99,-139.3 806.99,-142.8 816.99,-146.3 816.99,-139.3"/>
</g>
</g>
</svg>
